<?xml version="1.0" encoding="UTF-8" standalone="no"?>
<svg
   xml:space="preserve"
   style="shape-rendering:geometricPrecision;text-rendering:geometricPrecision;image-rendering:optimizeQuality;"
   viewBox="0 0 2.33333 2.9166625"
   x="0px"
   y="0px"
   fill-rule="evenodd"
   clip-rule="evenodd"
   version="1.1"
   id="svg17"
   sodipodi:docname="aplicativo.svg"
   inkscape:version="1.3 (0e150ed6c4, 2023-07-21)"
   xmlns:inkscape="http://www.inkscape.org/namespaces/inkscape"
   xmlns:sodipodi="http://sodipodi.sourceforge.net/DTD/sodipodi-0.dtd"
   xmlns="http://www.w3.org/2000/svg"
   xmlns:svg="http://www.w3.org/2000/svg"><sodipodi:namedview
     id="namedview17"
     pagecolor="#ffffff"
     bordercolor="#000000"
     borderopacity="0.25"
     inkscape:showpageshadow="2"
     inkscape:pageopacity="0.0"
     inkscape:pagecheckerboard="0"
     inkscape:deskcolor="#d1d1d1"
     inkscape:zoom="174.51454"
     inkscape:cx="1.166092"
     inkscape:cy="1.4583312"
     inkscape:window-width="1366"
     inkscape:window-height="705"
     inkscape:window-x="-8"
     inkscape:window-y="-8"
     inkscape:window-maximized="1"
     inkscape:current-layer="g15" /><defs
     id="defs1"><style
       type="text/css"
       id="style1">&#10;   &#10;    .fil1 {fill:none}&#10;    .fil0 {fill:black}&#10;   &#10;  </style></defs><g
     id="g16"><g
       id="g15"><g
         id="g10"
         style="fill:#b21b1b;fill-opacity:1"><g
           id="g8"
           style="fill:#b21b1b;fill-opacity:1" /></g><g
         id="g18"
         transform="translate(-0.26605527,-0.15273191)"
         style="fill:#b21b1b;fill-opacity:1"><g
           id="g1"
           transform="matrix(1.5300008,0,0,1.5300008,-0.36778395,-0.17394358)"
           style="fill:#b21b1b;fill-opacity:1"><path
             class="fil0"
             d="m 1.39469,1.29636 c -0.00241,0 -0.00485,-4.764e-4 -0.00715,-0.00148 L 1.176823,1.204577 0.96612599,1.29488 c -0.007106,0.00304 -0.0153386,0.00128 -0.0205866,-0.00442 -0.005197,-0.00572 -0.00622,-0.014075 -0.002559,-0.020878 L 1.1608307,0.86498643 c 0.00319,-0.00587 0.00931,-0.009532 0.01598,-0.009532 0.00673,0 0.012854,0.003661 0.015984,0.009532 l 0.217898,0.40459397 c 0.00366,0.0068 0.00261,0.015158 -0.00261,0.020878 -0.00353,0.00384 -0.0084,0.0059 -0.013393,0.0059 z M 1.176792,1.166679 c 0.00246,0 0.0049,5.039e-4 0.00715,0.00148 L 1.354033,1.241049 1.1767645,0.91189211 0.99955154,1.2410491 1.1695945,1.1681593 c 0.00235,-9.764e-4 0.00481,-0.00148 0.0072,-0.00148 z"
             id="path1"
             style="fill:#b21b1b;fill-opacity:1" /></g><g
           id="g17"
           style="image-rendering:optimizeQuality;shape-rendering:geometricPrecision;text-rendering:geometricPrecision;fill:#b21b1b;fill-opacity:1"><g
             id="g2"
             transform="matrix(1.5300008,0,0,1.5300008,-0.36778701,-0.17394358)"
             style="fill:#b21b1b;fill-opacity:1"><path
               class="fil0"
               d="m 1.1768,1.94943 c -0.039906,0 -0.072402,-0.03248 -0.072402,-0.072386 0,-0.039933 0.032496,-0.072406 0.072402,-0.072406 0.039957,0 0.072405,0.03248 0.072405,0.072406 0,0.039917 -0.032449,0.072386 -0.072405,0.072386 z m 0,-0.108469 c -0.019898,0 -0.036091,0.016193 -0.036091,0.036094 0,0.019902 0.016193,0.036091 0.036091,0.036091 0.019902,0 0.036094,-0.016189 0.036094,-0.036091 0,-0.019902 -0.016193,-0.036094 -0.036094,-0.036094 z"
               id="path2"
               style="fill:#b21b1b;fill-opacity:1" /></g><g
             id="g3"
             transform="matrix(1.5300008,0,0,1.5300008,-0.36778395,-0.17394358)"
             style="fill:#b21b1b;fill-opacity:1"><path
               class="fil0"
               d="M 1.50243,2.02 H 0.849993 C 0.7592607,2.02 0.685375,1.9461929 0.685375,1.855386 v -1.37743 c 0,-0.090752 0.0738661,-0.164618 0.164618,-0.164618 H 1.50243 c 0.090732,0 0.164614,0.0738386 0.164614,0.164618 v 0.0718819 l 0.00118,0.621543 -0.00118,0.684035 c 0,0.090748 -0.073882,0.164587 -0.164614,0.164587 z M 0.849993,0.34968 c -0.0707283,0 -0.128276,0.0575472 -0.128276,0.128276 v 1.37743 c 0,0.070752 0.0575472,0.128303 0.128276,0.128303 H 1.50243 c 0.070724,0 0.128276,-0.057551 0.128276,-0.128303 L 1.631936,1.171366 1.630706,0.549854 V 0.4779524 c 0,-0.0707283 -0.057551,-0.128276 -0.128276,-0.128276 H 0.849993 Z"
               id="path3"
               style="fill:#b21b1b;fill-opacity:1" /></g><g
             id="g4"
             transform="matrix(1.5300008,0,0,1.5300008,-0.36783314,-0.17394358)"
             style="fill:#b21b1b;fill-opacity:1"><path
               class="fil0"
               d="M 1.48093,1.76584 H 0.872713 c -0.0425433,0 -0.0771457,-0.034634 -0.0771457,-0.077177 v -1.17103 c 0,-0.0425433 0.0346102,-0.0771457 0.0771457,-0.0771457 h 0.158866 c 0.010035,0 0.018197,0.00811 0.018197,0.0181457 0,0.0300394 0.024413,0.0544567 0.054457,0.0544567 h 0.145244 c 0.030043,0 0.054457,-0.0244173 0.054457,-0.0544567 0,-0.0100197 0.00813,-0.0181457 0.01815,-0.0181457 H 1.48095 c 0.042543,0 0.077146,0.0346102 0.077146,0.0771457 v 1.17103 C 1.5580749,1.7312061 1.5234647,1.76584 1.48093,1.76584 Z M 0.872686,0.47678 c -0.0224921,0 -0.0408386,0.0182953 -0.0408386,0.0408543 v 1.17103 c 0,0.022512 0.0183189,0.040858 0.0408386,0.040858 h 0.608217 c 0.022535,0 0.040882,-0.018319 0.040882,-0.040858 v -1.17103 C 1.5217849,0.4950949 1.5034699,0.47678 1.480903,0.47678 H 1.338399 C 1.329919,0.5181658 1.293246,0.5494099 1.249431,0.5494099 H 1.104187 C 1.06036,0.5494099 1.023652,0.5181934 1.015218,0.47678 H 0.872687 Z"
               id="path4"
               style="fill:#b21b1b;fill-opacity:1" /></g><g
             id="g5"
             transform="matrix(1.5300008,0,0,1.5300008,-0.36777332,-0.17394358)"
             style="fill:#b21b1b;fill-opacity:1"><path
               class="fil0"
               d="M 1.53993,1.63874 H 0.813702 c -0.0100354,0 -0.0181929,-0.00811 -0.0181929,-0.018146 0,-0.010035 0.00813,-0.018177 0.0181929,-0.018177 l 0.726228,1.18e-5 c 0.010035,0 0.018146,0.00811 0.018146,0.018173 0,0.010008 -0.00808,0.018138 -0.018146,0.018138 z"
               id="path5"
               style="fill:#b21b1b;fill-opacity:1" /></g><g
             id="g7"
             style="fill:#b21b1b;fill-opacity:1" /></g><g
           id="g11"
           transform="matrix(1.5300008,0,0,1.5300008,-0.36778395,-0.17394358)"
           style="fill:#b21b1b;fill-opacity:1"><path
             class="fil0"
             d="m 1.32203,0.894319 c -0.00462,0 -0.00926,-0.001756 -0.01285,-0.005295 -0.00705,-0.007102 -0.00705,-0.0185709 0,-0.0256772 l 0.186906,-0.18685 H 0.8137 c -0.0100354,0 -0.0181929,-0.00813 -0.0181929,-0.0181929 0,-0.009988 0.00813,-0.0181457 0.0181929,-0.0181457 h 0.726228 c 0.00735,0 0.013984,0.004421 0.016764,0.0111929 0.00278,0.006772 0.00128,0.0145787 -0.00392,0.0197795 l -0.217898,0.217894 c -0.00351,0.003539 -0.00818,0.005295 -0.012846,0.005295 z"
             id="path10"
             style="fill:#b21b1b;fill-opacity:1" /></g><g
           id="g12"
           transform="matrix(1.5300008,0,0,1.5300008,-0.36778395,-0.17394358)"
           style="fill:#b21b1b;fill-opacity:1"><path
             class="fil0"
             d="M 1.53993,1.45719 H 0.813702 c -0.0100354,0 -0.0181929,-0.00813 -0.0181929,-0.018177 0,-0.010043 0.00813,-0.018173 0.0181929,-0.018173 H 1.53993 c 0.010035,0 0.018146,0.00813 0.018146,0.018173 0,0.010047 -0.00808,0.018177 -0.018146,0.018177 z"
             id="path11"
             style="fill:#b21b1b;fill-opacity:1" /></g><g
           id="g13"
           transform="matrix(1.5300008,0,0,1.5300008,-0.36778395,-0.17394358)"
           style="fill:#b21b1b;fill-opacity:1"><path
             class="fil0"
             d="M 1.06789,1.63874 C 1.0579,1.63874 1.049744,1.63063 1.049744,1.620594 V 1.366405 c 0,-0.01002 0.00813,-0.018177 0.018146,-0.018177 0.010039,0 0.01815,0.00813 0.01815,0.018177 V 1.620594 C 1.0860199,1.63061 1.0779372,1.63874 1.06789,1.63874 Z"
             id="path12"
             style="fill:#b21b1b;fill-opacity:1" /></g><g
           id="g14"
           transform="matrix(1.5300008,0,0,1.5300008,-0.36778395,-0.17394358)"
           style="fill:#b21b1b;fill-opacity:1"><path
             class="fil0"
             d="M 1.53993,1.54794 H 0.977095 c -0.009988,0 -0.0181457,-0.00811 -0.0181457,-0.018146 0,-0.010035 0.00813,-0.018173 0.0181457,-0.018173 H 1.53993 c 0.010035,0 0.018146,0.00811 0.018146,0.018173 0,0.010035 -0.00808,0.018146 -0.018146,0.018146 z"
             id="path13"
             style="fill:#b21b1b;fill-opacity:1" /></g></g></g></g><rect
     class="fil1"
     width="2.33333"
     height="2.33333"
     id="rect16" /><text
     x="0"
     y="17.33333"
     fill="#000000"
     font-size="5px"
     font-weight="bold"
     font-family="'Helvetica Neue', Helvetica, Arial-Unicode, Arial, Sans-serif"
     id="text16">Created by Vector Valley</text><text
     x="0"
     y="22.33333"
     fill="#000000"
     font-size="5px"
     font-weight="bold"
     font-family="'Helvetica Neue', Helvetica, Arial-Unicode, Arial, Sans-serif"
     id="text17">from the Noun Project</text></svg>
