<svg width="1920" height="1920" viewBox="0 0 1920 1920" fill="none" xmlns="http://www.w3.org/2000/svg">
<rect width="1920" height="1920" fill="white"/>
<path d="M598 1177V998.769H1251.5V836.015H598V655.787H1251.5V515" stroke="#C40000" stroke-width="25"/>
<path d="M648 1290V1319.02H543V1369.68H648V1414L543 1413.62L543 1447H681V1329H714V1447H747V1329H837V1423L870 1442.5V1385.75V1329H903V1419H935V1329H966V1447H999V1329H1097.06V1351H1029V1375H1067V1399H1032V1424H1097.06V1447H1130V1329H1163V1447H1196V1329H1270V1397H1234.5L1272.5 1447H1303V1329H1377V1447H1395" stroke="#B31B1B" stroke-width="10"/>
</svg>
