<svg width="1069" height="1034" viewBox="0 0 1069 1034" fill="none" xmlns="http://www.w3.org/2000/svg">
<path d="M1039 534C1039 810.142 815.142 1034 539 1034C262.858 1034 39 810.142 39 534C39 257.858 262.858 34 539 34C815.142 34 1039 257.858 1039 534ZM49 534C49 804.62 268.38 1024 539 1024C809.62 1024 1029 804.62 1029 534C1029 263.38 809.62 44 539 44C268.38 44 49 263.38 49 534Z" fill="#C40000"/>
<path d="M1039 534C1039 810.142 815.142 1034 539 1034C262.858 1034 39 810.142 39 534C39 257.858 262.858 34 539 34C815.142 34 1039 257.858 1039 534ZM64 534C64 796.335 276.665 1009 539 1009C801.335 1009 1014 796.335 1014 534C1014 271.665 801.335 59 539 59C276.665 59 64 271.665 64 534Z" fill="#C40000"/>
<path d="M1000 500C1000 776.142 776.142 1000 500 1000C223.858 1000 0 776.142 0 500C0 223.858 223.858 0 500 0C776.142 0 1000 223.858 1000 500ZM10 500C10 770.62 229.38 990 500 990C770.62 990 990 770.62 990 500C990 229.38 770.62 10 500 10C229.38 10 10 229.38 10 500Z" fill="#C40000"/>
<path d="M1069 500C1069 776.142 845.142 1000 569 1000C292.858 1000 69 776.142 69 500C69 223.858 292.858 0 569 0C845.142 0 1069 223.858 1069 500ZM79 500C79 770.62 298.38 990 569 990C839.62 990 1059 770.62 1059 500C1059 229.38 839.62 10 569 10C298.38 10 79 229.38 79 500Z" fill="#C40000"/>
<path d="M1039 500C1039 776.142 815.142 1000 539 1000C262.858 1000 39 776.142 39 500C39 223.858 262.858 0 539 0C815.142 0 1039 223.858 1039 500ZM44 500C44 773.381 265.619 995 539 995C812.381 995 1034 773.381 1034 500C1034 226.619 812.381 5 539 5C265.619 5 44 226.619 44 500Z" fill="#C40000"/>
</svg>
