<?xml version="1.0" encoding="UTF-8" standalone="no"?>
<svg
   version="1.1"
   x="0px"
   y="0px"
   viewBox="0 0 512 512"
   xml:space="preserve"
   id="svg6"
   sodipodi:docname="RegraNegocial.svg"
   width="512"
   height="512"
   inkscape:version="1.3 (0e150ed6c4, 2023-07-21)"
   xmlns:inkscape="http://www.inkscape.org/namespaces/inkscape"
   xmlns:sodipodi="http://sodipodi.sourceforge.net/DTD/sodipodi-0.dtd"
   xmlns="http://www.w3.org/2000/svg"
   xmlns:svg="http://www.w3.org/2000/svg"><defs
     id="defs6" /><sodipodi:namedview
     id="namedview6"
     pagecolor="#ffffff"
     bordercolor="#000000"
     borderopacity="0.25"
     inkscape:showpageshadow="2"
     inkscape:pageopacity="0.0"
     inkscape:pagecheckerboard="0"
     inkscape:deskcolor="#d1d1d1"
     inkscape:zoom="0.7953125"
     inkscape:cx="255.87426"
     inkscape:cy="320"
     inkscape:window-width="1366"
     inkscape:window-height="705"
     inkscape:window-x="-8"
     inkscape:window-y="-8"
     inkscape:window-maximized="1"
     inkscape:current-layer="svg6" /><g
     id="g5"
     style="fill:#b21b1b;fill-opacity:1"><path
       d="M 402.201,16 H 25.606 c -3.478,0 -6.309,2.824 -6.309,6.302 v 467.389 c 0,3.478 2.832,6.309 6.309,6.309 h 376.595 c 3.478,0 6.309,-2.832 6.309,-6.309 V 22.302 C 408.511,18.824 405.679,16 402.201,16 Z m -6.309,467.381 H 31.916 V 28.603 h 363.976 z"
       id="path1"
       style="fill:#b21b1b;fill-opacity:1" /><path
       d="M 67.88,463.745 H 253.5 c 11.067,0 21.037,-4.649 28.177,-12.049 0.07,-0.064 0.163,-0.086 0.231,-0.154 l 73.297,-73.128 c 7.017,-7.002 11.049,-16.697 11.049,-26.607 V 95.668 c 0,-3.478 -2.832,-6.302 -6.309,-6.302 h -32.47 V 78.471 c 0,-5.602 -4.555,-10.157 -10.157,-10.157 H 290.049 V 58.265 c 0,-3.478 -2.832,-6.302 -6.309,-6.302 H 144.27 c -3.478,0 -6.309,2.824 -6.309,6.302 v 10.049 h -27.1 c -5.602,0 -10.172,4.555 -10.172,10.157 V 89.366 H 67.88 c -3.478,0 -6.309,2.824 -6.309,6.302 v 361.768 c -10e-4,3.478 2.831,6.309 6.309,6.309 z m 224.845,-40.797 v -47.997 c 10.677,1.601 30.132,3.619 46.928,1.177 z M 150.579,64.567 h 126.85 v 16.697 h -126.85 z m -37.272,31.101 v -14.75 h 24.653 v 6.648 c 0,3.478 2.832,6.302 6.309,6.302 h 139.469 c 3.478,0 6.309,-2.824 6.309,-6.302 v -6.648 h 24.807 v 31.901 l -80.33,0.038 c -1.877,0 -3.647,0.831 -4.847,2.278 -8.402,10.095 -25.468,10.095 -33.809,0 -1.2,-1.447 -2.985,-2.285 -4.863,-2.285 l -77.698,-0.031 z m -39.118,6.302 h 26.5 v 13.304 c 0,5.594 4.57,10.149 10.172,10.149 l 77.36,0.031 c 6.463,6.54 15.25,10.234 24.545,10.234 9.279,0 18.066,-3.693 24.545,-10.226 l 80.006,-0.038 c 5.602,0 10.157,-4.555 10.157,-10.149 V 101.97 h 26.161 v 249.837 c 0,2.508 -0.498,4.961 -1.234,7.337 -14.831,9.053 -51.472,4.725 -64.784,2.174 -1.847,-0.354 -3.755,0.139 -5.217,1.323 -1.447,1.2 -2.293,2.985 -2.293,4.863 v 57.031 c 0,14.666 -11.926,26.592 -26.607,26.592 H 74.189 Z"
       id="path2"
       style="fill:#b21b1b;fill-opacity:1" /><path
       d="M 484.424,25.872 C 484.393,23.117 484.116,16 459.694,16 c -0.031,0 -0.062,0 -0.092,0 -24.761,0 -24.807,7.264 -24.822,9.857 -7.956,258.947 -7.956,258.947 -7.833,260.363 0.231,1.394 0.936,2.593 1.911,3.516 0.14,5.709 0.634,17.463 1.69,21.829 1.831,7.664 4.124,63.325 2.401,81.853 -0.138,1.431 -1.262,14.265 0.708,22.175 0.677,2.724 1.016,5.602 1.016,8.556 0,1.714 0.169,5.709 7.494,8.234 -0.486,7.745 -1.478,16.584 -3.185,22.497 -0.431,1.462 -0.308,3.032 0.339,4.417 l 3.416,7.371 c 2.862,6.171 5.201,12.48 6.971,18.759 0.6,2.139 0.97,3.909 1.062,4.847 0.308,3.247 3.032,5.725 6.279,5.725 h 0.015 l 5.663,-0.015 c 3.216,-0.015 5.909,-2.447 6.248,-5.648 0.108,-0.939 0.477,-2.739 1.093,-4.924 1.724,-6.248 4.063,-12.557 6.925,-18.759 l 3.416,-7.402 c 0.631,-1.385 0.754,-2.939 0.323,-4.401 -1.935,-6.693 -2.834,-16.385 -3.236,-22.586 4.863,-1.742 7.515,-4.405 7.515,-8.146 0,-2.985 0.323,-5.848 1,-8.541 1.954,-7.925 0.816,-20.759 0.677,-22.191 -1.754,-18.544 0.462,-74.205 2.293,-81.838 0.026,-0.109 0.046,-0.286 0.072,-0.403 0.032,-0.118 0.04,-0.238 0.064,-0.359 1.018,-5.099 1.429,-16.735 1.536,-21.686 1.049,-1.339 1.815,-3.007 2.052,-4.437 z m -37.164,3.809 c 2.385,-0.516 6.032,-1.408 12.419,-1.077 5.74,0 9.91,0.554 12.265,1.062 l 0.321,9.925 c -8.322,-0.853 -17.494,-0.7 -25.324,0.512 z m -0.717,23.382 c 7.531,-1.524 17.604,-1.809 26.133,-0.721 l 0.149,4.617 c -0.189,0.915 -0.131,1.806 0.087,2.67 l 0.116,3.593 c -3.566,-0.412 -7.284,-0.686 -11.18,-0.686 -0.031,0 -0.077,0 -0.123,0 -5.629,0 -10.765,0.573 -15.516,1.395 z m 18.999,408.297 c -2.17,4.724 -4.078,9.51 -5.663,14.281 -1.616,-4.801 -3.524,-9.572 -5.709,-14.281 l -2.462,-5.309 c 1.723,-7.08 2.54,-15.548 2.954,-21.666 1.665,0.089 3.213,0.214 5.172,0.214 1.971,0 3.441,-0.214 5.183,-0.312 0.436,6.28 1.279,14.732 2.988,21.733 z m 6.971,-40.611 c -2.339,0.585 -6.663,1.231 -12.68,1.231 -6.017,0 -10.326,-0.646 -12.665,-1.216 -0.141,-2.137 -0.554,-4.201 -0.975,-6.26 4.198,0.28 8.612,0.474 13.209,0.474 5.072,0.069 9.694,-0.153 14.062,-0.471 -0.41,2.042 -0.811,4.095 -0.951,6.242 z m 1.616,-26.177 c 0.141,1.45 0.304,4.202 0.362,7.176 -4.498,0.365 -9.418,0.611 -14.673,0.611 -5.177,-0.058 -10.118,-0.272 -14.661,-0.609 0.056,-2.964 0.214,-5.707 0.349,-7.163 1.469,-15.861 0.222,-57.936 -1.563,-77.3 4.132,0.249 8.397,0.417 12.797,0.417 6.777,-0.011 13.063,-0.421 18.91,-0.996 -1.791,19.085 -3.03,61.832 -1.521,77.864 z m 3.18,-90.711 c -10.393,1.218 -23.887,1.408 -35.05,0.627 -0.298,-3.316 -0.542,-7.866 -0.688,-12.064 5.685,0.507 11.634,0.859 17.922,0.859 6.588,-0.138 12.654,-0.461 18.459,-0.936 -0.129,3.748 -0.359,8.135 -0.643,11.514 z m -17.477,-23.197 c -7.294,0.108 -14.05,-0.323 -20.236,-1 l 6.217,-202.786 c 4.533,-1.03 9.909,-1.739 15.912,-1.739 0.046,0 0.077,0 0.123,0 4.139,0 7.988,0.356 11.593,0.871 l 6.582,203.623 c -6.233,0.677 -13.096,1.031 -20.191,1.031 z"
       id="path3"
       style="fill:#b21b1b;fill-opacity:1" /><path
       d="m 455.826,450.521 c -2.199,2.2 -2.197,5.766 0.004,7.965 2.2,2.199 5.766,2.198 7.965,-0.003 2.199,-2.201 2.198,-5.767 -0.003,-7.966 -2.201,-2.198 -5.768,-2.196 -7.966,0.004 z"
       id="path4"
       style="fill:#b21b1b;fill-opacity:1" /><path
       d="m 227.923,307.687 h -10.726 v -15.881 h 63.525 v 15.881 h -10.726 c -7.879,0 -14.296,6.417 -14.296,14.296 v 16.958 c 0,7.879 6.417,14.296 14.296,14.296 h 34.071 c 7.894,0 14.312,-6.417 14.312,-14.296 v -16.958 c 0,-7.879 -6.417,-14.296 -14.312,-14.296 h -10.726 v -22.191 c 0,-3.478 -2.832,-6.309 -6.309,-6.309 h -33.64 v -12.68 h 10.726 c 7.894,0 14.312,-6.417 14.312,-14.296 v -16.943 c 0,-7.894 -6.417,-14.312 -14.312,-14.312 h -16.62 v -11.749 c 0,-3.478 -2.832,-6.302 -6.309,-6.302 H 215.32 v -11.903 h 10.726 c 7.894,0 14.312,-6.409 14.312,-14.296 v -16.943 c 0,-7.887 -6.417,-14.304 -14.312,-14.304 H 191.99 c -7.894,0 -14.312,6.417 -14.312,14.304 v 16.943 c 0,7.887 6.417,14.296 14.312,14.296 h 10.711 v 11.903 h -25.853 c -3.478,0 -6.309,2.824 -6.309,6.302 v 11.749 h -16.62 c -7.894,0 -14.312,6.417 -14.312,14.312 v 16.943 c 0,7.879 6.417,14.296 14.312,14.296 h 10.711 v 12.68 h -29.885 c -3.478,0 -6.309,2.832 -6.309,6.309 v 22.191 H 117.71 c -7.879,0 -14.296,6.417 -14.296,14.296 v 16.958 c 0,7.879 6.417,14.296 14.296,14.296 h 34.071 c 7.894,0 14.312,-6.417 14.312,-14.296 v -16.958 c 0,-7.879 -6.417,-14.296 -14.312,-14.296 h -10.726 v -15.881 h 63.525 v 15.881 h -10.726 c -7.879,0 -14.296,6.417 -14.296,14.296 v 16.958 c 0,7.879 6.417,14.296 14.296,14.296 h 34.071 c 7.894,0 14.312,-6.417 14.312,-14.296 v -16.958 c -0.002,-7.879 -6.419,-14.296 -14.314,-14.296 z m 76.144,12.619 c 0.939,0 1.693,0.754 1.693,1.677 v 16.958 c 0,0.923 -0.754,1.677 -1.693,1.677 h -34.071 c -0.923,0 -1.677,-0.754 -1.677,-1.677 v -16.958 c 0,-0.923 0.754,-1.677 1.677,-1.677 z m -152.288,0 c 0.939,0 1.693,0.754 1.693,1.677 v 16.958 c 0,0.923 -0.754,1.677 -1.693,1.677 h -34.071 c -0.923,0 -1.677,-0.754 -1.677,-1.677 v -16.958 c 0,-0.923 0.754,-1.677 1.677,-1.677 z m 112.339,-86.731 c 0.939,0 1.693,0.754 1.693,1.693 v 16.943 c 0,0.923 -0.754,1.677 -1.693,1.677 h -34.055 c -0.939,0 -1.693,-0.754 -1.693,-1.677 v -16.943 c 0,-0.939 0.754,-1.693 1.693,-1.693 z M 191.99,178.398 c -0.939,0 -1.693,-0.762 -1.693,-1.693 v -16.943 c 0,-0.939 0.754,-1.7 1.693,-1.7 h 34.055 c 0.939,0 1.693,0.762 1.693,1.7 v 16.943 c 0,0.931 -0.754,1.693 -1.693,1.693 z m -38.072,75.49 c -0.939,0 -1.693,-0.754 -1.693,-1.677 v -16.943 c 0,-0.939 0.754,-1.693 1.693,-1.693 h 34.055 c 0.939,0 1.693,0.754 1.693,1.693 v 16.943 c 0,0.923 -0.754,1.677 -1.693,1.677 z m 23.33,25.299 v -12.68 h 10.726 c 7.894,0 14.312,-6.417 14.312,-14.296 v -16.943 c 0,-7.894 -6.417,-14.312 -14.312,-14.312 h -4.817 v -5.448 h 51.722 v 5.448 h -4.817 c -7.894,0 -14.312,6.417 -14.312,14.312 v 16.943 c 0,7.879 6.417,14.296 14.312,14.296 h 10.711 v 12.68 z m 52.368,59.755 c 0,0.923 -0.754,1.677 -1.693,1.677 h -34.071 c -0.923,0 -1.677,-0.754 -1.677,-1.677 v -16.958 c 0,-0.923 0.754,-1.677 1.677,-1.677 h 34.071 c 0.939,0 1.693,0.754 1.693,1.677 z"
       id="path5"
       style="fill:#b21b1b;fill-opacity:1" /></g></svg>
