<svg width="250" height="251" viewBox="0 0 250 251" fill="none" xmlns="http://www.w3.org/2000/svg">
<path d="M233.329 4.34424H16.6709C7.479 4.34424 0 11.8237 0 21.0151V158.511C0 160.811 1.8667 162.677 4.1665 162.677H245.833C248.133 162.677 250 160.811 250 158.511V21.0151C250 11.8237 242.521 4.34424 233.329 4.34424ZM241.667 154.344H8.3335V21.0151C8.3335 16.415 12.0752 12.6777 16.6709 12.6777H233.329C237.925 12.6777 241.667 16.415 241.667 21.0151V154.344Z" fill="#B31B1B"/>
<path d="M245.834 154.344H4.1665C1.8667 154.344 0 156.211 0 158.511V179.34C0 188.532 7.479 196.011 16.6709 196.011H233.329C242.521 196.011 250 188.532 250 179.34V158.511C250 156.211 248.133 154.344 245.834 154.344ZM241.667 179.34C241.667 183.94 237.925 187.678 233.329 187.678H16.6709C12.0752 187.678 8.3335 183.94 8.3335 179.34V162.678H241.667V179.34H241.667Z" fill="#B31B1B"/>
<path d="M137.5 171.011H112.5C110.2 171.011 108.333 172.878 108.333 175.178C108.333 177.478 110.2 179.344 112.5 179.344H137.5C139.8 179.344 141.667 177.478 141.667 175.178C141.667 172.878 139.8 171.011 137.5 171.011Z" fill="#B31B1B"/>
<path d="M229.166 21.0112H20.8335C18.5337 21.0112 16.667 22.8779 16.667 25.1777V158.511C16.667 160.811 18.5337 162.678 20.8335 162.678H229.167C231.467 162.678 233.333 160.811 233.333 158.511V25.1777C233.333 22.8779 231.467 21.0112 229.166 21.0112ZM225 154.344H25V29.3442H225V154.344Z" fill="#B31B1B"/>
<path d="M179.166 221.011H70.8335C63.9419 221.011 58.3335 226.62 58.3335 233.511C58.3335 240.403 63.9419 246.011 70.8335 246.011H179.167C186.059 246.011 191.667 240.403 191.667 233.511C191.667 226.62 186.058 221.011 179.166 221.011ZM179.166 237.678H70.8335C68.5337 237.678 66.667 235.807 66.667 233.511C66.667 231.215 68.5337 229.345 70.8335 229.345H179.167C181.467 229.345 183.333 231.215 183.333 233.511C183.333 235.807 181.467 237.678 179.166 237.678Z" fill="#B31B1B"/>
<path d="M170.833 221.011C157.008 221.011 150 211.199 150 191.845C150 189.545 148.133 187.678 145.833 187.678H104.167C101.867 187.678 100 189.545 100 191.845C100 211.199 92.9922 221.011 79.167 221.011C76.8672 221.011 75.0005 222.878 75.0005 225.178C75.0005 227.478 76.8672 229.344 79.167 229.344H170.833C173.133 229.344 175 227.478 175 225.178C175 222.878 173.133 221.011 170.833 221.011ZM99.4624 221.011C104.592 215.328 107.612 206.865 108.221 196.011H141.783C142.387 206.865 145.408 215.328 150.542 221.011H99.4624Z" fill="#B31B1B"/>
<path d="M199.1 127.111L189.042 117.053L194.638 111.457C195.675 110.419 196.092 108.911 195.733 107.49C195.375 106.069 194.296 104.944 192.892 104.52L151.225 92.0196C149.754 91.5777 148.167 91.982 147.083 93.0654C145.996 94.1489 145.596 95.7403 146.038 97.2071L158.538 138.874C158.959 140.282 160.087 141.361 161.508 141.719C162.925 142.069 164.438 141.661 165.475 140.624L171.367 134.728L181.425 144.79C182.204 145.573 183.267 146.011 184.371 146.011C185.475 146.011 186.537 145.573 187.316 144.79L199.1 133.002C200.729 131.374 200.729 128.74 199.1 127.111ZM184.371 135.953L175.212 126.79C174.15 125.728 172.758 125.198 171.367 125.198C169.971 125.198 168.579 125.731 167.521 126.786L164.513 129.794L156.242 102.223L183.813 110.494L180.587 113.719C179.7 114.611 179.212 115.794 179.212 117.053C179.212 118.315 179.704 119.507 180.596 120.39L190.262 130.057L184.371 135.953Z" fill="#B31B1B"/>
<path d="M175 37.6777H58.3335C56.0337 37.6777 54.167 39.5444 54.167 41.8442V62.6777C54.167 64.9775 56.0337 66.8442 58.3335 66.8442H175C177.3 66.8442 179.167 64.9775 179.167 62.6777V41.8442C179.167 39.5444 177.3 37.6777 175 37.6777ZM170.833 58.5112H62.5V46.0112H170.833V58.5112V58.5112Z" fill="#B31B1B"/>
<path d="M108.333 83.5112H75C72.7002 83.5112 70.8335 85.3779 70.8335 87.6777V104.344C70.8335 106.644 72.7002 108.511 75 108.511H108.333C110.633 108.511 112.5 106.644 112.5 104.344V87.6777C112.5 85.3779 110.633 83.5112 108.333 83.5112ZM104.167 100.178H79.1665V91.8442H104.167V100.178V100.178Z" fill="#B31B1B"/>
<path d="M175 37.6777H58.3335C56.0337 37.6777 54.167 39.5444 54.167 41.8442V121.011C54.167 123.311 56.0337 125.177 58.3335 125.177H157.525C158.846 125.177 160.083 124.557 160.867 123.498C161.655 122.44 161.896 121.073 161.517 119.811L156.242 102.223L173.805 107.494C175.067 107.874 176.434 107.632 177.488 106.844C178.546 106.061 179.167 104.819 179.167 103.502V41.8442C179.167 39.5444 177.3 37.6777 175 37.6777ZM170.834 97.9028L151.221 92.0195C149.75 91.5776 148.163 91.9819 147.079 93.0654C145.992 94.1528 145.592 95.7402 146.033 97.2114L151.925 116.845H62.5V46.0112H170.834V97.9028V97.9028Z" fill="#B31B1B"/>
</svg>
